<svg xmlns:dc="http://purl.org/dc/elements/1.1/" xmlns:cc="http://creativecommons.org/ns#" xmlns:rdf="http://www.w3.org/1999/02/22-rdf-syntax-ns#" xmlns:svg="http://www.w3.org/2000/svg" xmlns="http://www.w3.org/2000/svg" xmlns:sodipodi="http://sodipodi.sourceforge.net/DTD/sodipodi-0.dtd" xmlns:inkscape="http://www.inkscape.org/namespaces/inkscape" width="382" height="265" viewBox="0 0 101.07083 70.114585" id="svg8" inkscape:export-filename="/home/cephas/Documents/BYFA/IMAGES/ICONS AND VECTORS/customize-package.png" inkscape:export-xdpi="96" inkscape:export-ydpi="96" inkscape:version="1.0.1 (3bc2e813f5, 2020-09-07)" sodipodi:docname="customize-package-edit.svg"><defs id="defs2"></defs><metadata></metadata><g inkscape:label="Layer 1" inkscape:groupmode="layer" id="layer1"><g id="g935" transform="matrix(0.67921923,0,0,0.67921923,17.836298,15.773017)"><circle class="st0" cx="48.142216" cy="28.391827" r="16.933332" id="circle915" style="fill:#264f2c;fill-opacity:1;stroke-width:0.264583"></circle><path class="st1" d="m 58.460966,26.539744 h -2.407708 c -0.132292,0 -0.211667,-0.07937 -0.264584,-0.185209 -0.185208,-0.687916 -0.449791,-1.322916 -0.79375,-1.931458 -0.05292,-0.105833 -0.05292,-0.238125 0.02646,-0.3175 l 1.693333,-1.693333 c 0.105833,-0.105833 0.105833,-0.264583 0,-0.370417 l -2.2225,-2.248958 c -0.105833,-0.105833 -0.264583,-0.105833 -0.370417,0 l -1.693333,1.693333 c -0.07937,0.07938 -0.211667,0.105834 -0.3175,0.05292 C 51.502425,21.195164 50.867425,20.93058 50.179509,20.745372 50.073675,20.718912 49.9943,20.61308 49.9943,20.480789 V 18.07308 c 0,-0.15875 -0.105833,-0.264583 -0.264583,-0.264583 h -3.175 c -0.15875,0 -0.264583,0.105833 -0.264583,0.264583 v 2.407709 c 0,0.132291 -0.07937,0.211666 -0.185209,0.264583 -0.687916,0.185208 -1.322916,0.449792 -1.931458,0.79375 -0.105833,0.05292 -0.238125,0.05292 -0.3175,-0.02646 -0.370416,-0.370417 -1.296458,-1.296459 -1.693333,-1.693334 -0.105833,-0.105833 -0.264583,-0.105833 -0.370417,0 l -2.248958,2.2225 c -0.105833,0.105834 -0.105833,0.264584 0,0.370417 l 1.693333,1.693333 c 0.07938,0.07937 0.105834,0.211667 0.05292,0.3175 -0.343958,0.608542 -0.608542,1.243542 -0.79375,1.931458 -0.02646,0.105834 -0.132292,0.185209 -0.264583,0.185209 H 37.82347 c -0.15875,0 -0.264583,0.105833 -0.264583,0.264583 v 3.175 c 0,0.15875 0.105833,0.264583 0.264583,0.264583 h 2.407709 c 0.132291,0 0.211666,0.07937 0.264583,0.185209 0.185208,0.687916 0.449792,1.322916 0.79375,1.931458 0.05292,0.105833 0.05292,0.238125 -0.02646,0.3175 -0.370417,0.370417 -1.296459,1.296458 -1.693334,1.693333 -0.105833,0.105834 -0.105833,0.264584 0,0.370417 l 2.248959,2.248958 c 0.105833,0.105834 0.264583,0.105834 0.370416,0 l 1.693334,-1.693333 c 0.07937,-0.07937 0.211666,-0.105833 0.3175,-0.05292 0.608541,0.343959 1.243541,0.608542 1.931458,0.79375 0.105833,0.02646 0.15875,0.15875 0.15875,0.291042 v 2.38125 c 0,0.15875 0.132291,0.264583 0.291041,0.264583 h 3.175 c 0.15875,0 0.238125,-0.105833 0.238125,-0.264583 v -2.38125 c 0,-0.132292 0.105834,-0.238125 0.211667,-0.291042 0.687917,-0.185208 1.322917,-0.449791 1.931458,-0.79375 0.105834,-0.05292 0.238125,-0.05292 0.3175,0.02646 0.370417,0.370416 1.296459,1.296458 1.693334,1.693333 0.105833,0.105833 0.264583,0.105833 0.370416,0 l 2.248959,-2.248958 c 0.105833,-0.105834 0.105833,-0.264584 0,-0.370417 l -1.693334,-1.693333 c -0.07938,-0.07937 -0.105833,-0.211667 -0.05292,-0.3175 0.343958,-0.608542 0.608541,-1.217084 0.79375,-1.905 0.02646,-0.105834 0.132291,-0.185209 0.264583,-0.185209 h 2.407708 c 0.132292,0.02646 0.238125,-0.105833 0.238125,-0.264583 v -3.175 c 0,-0.15875 -0.105833,-0.264583 -0.264583,-0.264583 z m -10.31875,6.614583 c -2.619375,0 -4.7625,-2.143125 -4.7625,-4.7625 0,-2.619375 2.143125,-4.7625 4.7625,-4.7625 2.619375,0 4.7625,2.143125 4.7625,4.7625 0,2.619375 -2.143125,4.7625 -4.7625,4.7625 z" id="path917" style="stroke-width:0.264583"></path></g></g><style type="text/css" id="style913">
	.st0{fill:#267CB5;}
	.st1{fill:#FFFFFF;}
</style></svg>