<svg xmlns:dc="http://purl.org/dc/elements/1.1/" xmlns:cc="http://creativecommons.org/ns#" xmlns:rdf="http://www.w3.org/1999/02/22-rdf-syntax-ns#" xmlns:svg="http://www.w3.org/2000/svg" xmlns="http://www.w3.org/2000/svg" xmlns:sodipodi="http://sodipodi.sourceforge.net/DTD/sodipodi-0.dtd" xmlns:inkscape="http://www.inkscape.org/namespaces/inkscape" height="100" viewBox="0 0 100 100" width="100" id="svg24" sodipodi:docname="luggage_icon-new.svg" inkscape:export-filename="/home/cephas/Documents/BYFA/IMAGES/ICONS AND VECTORS/iconfinder_luggage_416411.png" inkscape:export-xdpi="96" inkscape:export-ydpi="96" inkscape:version="1.0.1 (3bc2e813f5, 2020-09-07)"><metadata></metadata><defs id="defs28"></defs><path d="M50 0c27.614 0 50 22.386 50 50s-22.386 50-50 50-50-22.386-50-50 22.386-50 50-50z" fill="#EFC75E" id="path2" style="fill:#264f2c;fill-opacity:1"></path><path d="M72 40h-44c-5.522 0-10 4.478-10 10v38.413c8.671 7.232 19.826 11.587 32 11.587s23.328-4.355 32-11.587v-38.413c0-5.522-4.478-10-10-10z" fill="#E2574C" id="path4" style="fill:#ffffff"></path><path d="M25 51v42.294c.98.567 1.979 1.108 3 1.61v-43.904c0-2.209 1.791-4 4-4h-3c-2.209 0-4 1.791-4 4z" fill="#CB4E44" id="path6" style="fill:#b3b3b3;fill-opacity:0.90420097"></path><path d="M71 46h-42c-2.757 0-5 2.243-5 5v41.715c.656.4 1.324.784 2 1.154v-42.869c0-1.654 1.346-3 3-3h42c1.654 0 3 1.346 3 3v42.869c.676-.37 1.344-.754 2-1.154v-41.715c0-2.757-2.243-5-5-5z" fill="#F19088" id="path8" style="fill:#808080;fill-opacity:1"></path><path d="M18 50v38.413c.968.808 1.972 1.571 3 2.305v-40.718c0-5.522 4.478-10 10-10h-3c-5.522 0-10 4.478-10 10z" fill="#CB4E44" id="path10" style="fill:#b3b3b3;fill-opacity:0.90420097"></path><path d="M34.5 55h31c.828 0 1.5.672 1.5 1.5s-.672 1.5-1.5 1.5h-31c-.828 0-1.5-.672-1.5-1.5s.672-1.5 1.5-1.5z" fill="#F1ABA6" id="path12" style="fill:#808080;fill-opacity:1"></path><path d="M68.5 28h-5.5v12h-3v-12h-20v12h-3v-12h-5.5c-1.381 0-2.5-1.119-2.5-2.5s1.119-2.5 2.5-2.5h37c1.381 0 2.5 1.119 2.5 2.5s-1.119 2.5-2.5 2.5z" fill="#324D5B" id="path14" style="fill:#b3b3b3"></path><path d="M58.664 69.334c-.771-.771-2.701-.088-3.625.836l-3.515 3.519c-.343-.318-8.883-3.363-9.189-3.058l-1.114 1.113c-.308.307-.308.805 0 1.112l6.242 4.896-2.46 2.461c-.187.188-.422.477-.67.818l-.099-.098c-.156-.156-2.398-.439-2.555-.283l-.568.566c-.156.157-.156.41 0 .566l.28.279 1.501 1.499c-.298.742-.407 1.386-.12 1.674.288.288.933.178 1.676-.122l1.479 1.478.295.293c.156.157.411.157.567 0l.568-.566c.156-.156-.127-2.394-.284-2.55l-.097-.097c.341-.247.627-.481.813-.667l2.46-2.462 4.898 6.222c.308.307.807.307 1.114 0l1.114-1.112c.308-.308-2.747-8.846-3.062-9.177l3.512-3.515c.926-.923 1.609-2.855.839-3.625z" fill="#F2F1EF" id="path16" style="fill:#000000;fill-opacity:1"></path><g fill="#233640" id="g20" style="fill:#808080"><path d="M37 28h3v3h-3zM60 28h3v3h-3z" id="path18" style="fill:#808080"></path></g><path d="M70.949 26h-41.899c.232 1.141 1.24 2 2.45 2h37c1.21 0 2.218-.859 2.449-2z" fill="#2D4552" id="path22" style="fill:#808080"></path></svg>